
        <svg xmlns="http://www.w3.org/2000/svg" xmlns:xlink="http://www.w3.org/1999/xlink" version="1.1" width="3162.064825930372" 
        height="744.6844245989823" viewBox="0 0 3162.064825930372 744.6844245989823">
			
			<g transform="scale(8.103241296518608) translate(10, 10)">
				<defs id="SvgjsDefs7048"></defs><g id="SvgjsG7049" featureKey="2ou6gm-0" transform="matrix(2.7777705873947984,0,0,2.7777705873947984,-5.555441833972119,-4.497254976687341)" fill="#ff373d"><g xmlns="http://www.w3.org/2000/svg" transform="translate(0,-1020.3622)"><path style="color:;font-style:normal;font-variant:normal;font-weight:normal;font-stretch:normal;font-size:medium;line-height:normal;font-family:sans-serif;text-indent:0;text-align:start;text-decoration:none;text-decoration-line:none;text-decoration-style:solid;text-decoration-color:;letter-spacing:normal;word-spacing:normal;text-transform:none;direction:ltr;block-progression:tb;writing-mode:lr-tb;baseline-shift:baseline;text-anchor:start;white-space:normal;clip-rule:nonzero;display:inline;overflow:visible;visibility:visible;opacity:1;isolation:auto;mix-blend-mode:normal;color-interpolation:sRGB;color-interpolation-filters:linearRGB;solid-color:;solid-opacity:1;fill:#ff373d;fill-opacity:1;fill-rule:nonzero;stroke:none;stroke-width:0.99999976;stroke-linecap:round;stroke-linejoin:round;stroke-miterlimit:10;stroke-dasharray:none;stroke-dashoffset:0;stroke-opacity:1;color-rendering:auto;image-rendering:auto;shape-rendering:auto;text-rendering:auto;enable-background:accumulate" d="m 16.019531,1027.8613 c -2.074092,0 -3.769531,1.6974 -3.769531,3.7715 0,2.0741 1.702798,3.7285 3.769531,3.7285 2.066737,0 3.730469,-1.6617 3.730469,-3.7285 0,-2.0713 -1.660941,-3.7715 -3.730469,-3.7715 z m 0,1 c 1.527355,0 2.730469,1.2283 2.730469,2.7715 0,1.539 -1.191486,2.7285 -2.730469,2.7285 -1.538978,0 -2.769531,-1.1968 -2.769531,-2.7285 0,-1.5317 1.237911,-2.7715 2.769531,-2.7715 z"></path><path style="color:;font-style:normal;font-variant:normal;font-weight:normal;font-stretch:normal;font-size:medium;line-height:normal;font-family:sans-serif;text-indent:0;text-align:start;text-decoration:none;text-decoration-line:none;text-decoration-style:solid;text-decoration-color:;letter-spacing:normal;word-spacing:normal;text-transform:none;direction:ltr;block-progression:tb;writing-mode:lr-tb;baseline-shift:baseline;text-anchor:start;white-space:normal;clip-rule:nonzero;display:inline;overflow:visible;visibility:visible;opacity:1;isolation:auto;mix-blend-mode:normal;color-interpolation:sRGB;color-interpolation-filters:linearRGB;solid-color:;solid-opacity:1;fill:#ff373d;fill-opacity:1;fill-rule:nonzero;stroke:none;stroke-width:0.99999988;stroke-linecap:round;stroke-linejoin:round;stroke-miterlimit:10;stroke-dasharray:none;stroke-dashoffset:0;stroke-opacity:1;color-rendering:auto;image-rendering:auto;shape-rendering:auto;text-rendering:auto;enable-background:accumulate" d="m 3.953125,1024.8633 a 0.50004994,0.50004994 0 0 0 -0.4609375,0.3379 c 0,0 -0.371345,1.0832 -0.7421875,2.4472 -0.3708425,1.3641 -0.75,2.9921 -0.75,4.2129 a 0.50004994,0.50004994 0 0 0 0,0.012 c 0.028015,1.2215 0.4469226,2.851 0.8515625,4.2149 0.4046399,1.3638 0.8027344,2.4473 0.8027344,2.4473 a 0.50004994,0.50004994 0 0 0 0.6035156,0.3086 c 3.3660667,-0.9256 6.9821955,-2.005 9.5917965,-4.6211 a 0.50004994,0.50004994 0 1 0 -0.707031,-0.7071 c -2.2694,2.2751 -5.4996965,3.3238 -8.6992186,4.2168 -0.1089077,-0.3038 -0.3136289,-0.8538 -0.6328125,-1.9297 C 3.4161165,1034.4733 3.023622,1032.856 3,1031.8555 c 0.00101,-1.0014 0.3536476,-2.6168 0.7148438,-3.9453 0.3004163,-1.1051 0.5064923,-1.704 0.5996093,-1.9825 0.2934251,0.026 1.4248197,0.1094 3.2382813,0.5489 2.03117,0.4921 4.4760296,1.3629 6.1152346,2.7714 a 0.50004994,0.50004994 0 1 0 0.652343,-0.7578 c -1.852101,-1.5914 -4.4205141,-2.4729 -6.5312495,-2.9843 -2.1107354,-0.5115 -3.7851562,-0.6426 -3.7851563,-0.6426 a 0.50004994,0.50004994 0 0 0 -0.050781,0 z"></path><path style="color:;font-style:normal;font-variant:normal;font-weight:normal;font-stretch:normal;font-size:medium;line-height:normal;font-family:sans-serif;text-indent:0;text-align:start;text-decoration:none;text-decoration-line:none;text-decoration-style:solid;text-decoration-color:;letter-spacing:normal;word-spacing:normal;text-transform:none;direction:ltr;block-progression:tb;writing-mode:lr-tb;baseline-shift:baseline;text-anchor:start;white-space:normal;clip-rule:nonzero;display:inline;overflow:visible;visibility:visible;opacity:1;isolation:auto;mix-blend-mode:normal;color-interpolation:sRGB;color-interpolation-filters:linearRGB;solid-color:;solid-opacity:1;fill:#ff373d;fill-opacity:1;fill-rule:nonzero;stroke:none;stroke-width:0.99999988;stroke-linecap:round;stroke-linejoin:round;stroke-miterlimit:10;stroke-dasharray:none;stroke-dashoffset:0;stroke-opacity:1;color-rendering:auto;image-rendering:auto;shape-rendering:auto;text-rendering:auto;enable-background:accumulate" d="m 27.990234,1024.8633 c 0,0 -6.115793,0.4769 -10.285156,3.6055 a 0.50074907,0.50074907 0 0 0 0.601563,0.8007 c 3.609,-2.7081 8.762115,-3.2747 9.375,-3.3379 0.09362,0.2795 0.300857,0.8747 0.601562,1.9786 0.361909,1.3285 0.715783,2.9442 0.716797,3.9453 -0.02366,1.0003 -0.417291,2.6178 -0.8125,3.9472 -0.319832,1.0759 -0.52566,1.626 -0.634766,1.9297 -3.203424,-0.8928 -6.418335,-1.9406 -8.693359,-4.2168 a 0.50004994,0.50004994 0 1 0 -0.707031,0.7071 c 2.613592,2.6148 6.214582,3.6953 9.58789,4.6211 a 0.50004994,0.50004994 0 0 0 0.601563,-0.3086 c 0,0 0.399234,-1.0834 0.804687,-2.4473 0.405454,-1.3639 0.82544,-2.9932 0.853516,-4.2149 a 0.50004994,0.50004994 0 0 0 0,-0.012 c 0,-1.221 -0.380364,-2.8488 -0.751953,-4.2129 -0.371589,-1.364 -0.742188,-2.4492 -0.742188,-2.4492 a 0.50004994,0.50004994 0 0 0 -0.515625,-0.3359 z"></path><path style="color:;font-style:normal;font-variant:normal;font-weight:normal;font-stretch:normal;font-size:medium;line-height:normal;font-family:sans-serif;text-indent:0;text-align:start;text-decoration:none;text-decoration-line:none;text-decoration-style:solid;text-decoration-color:;letter-spacing:normal;word-spacing:normal;text-transform:none;direction:ltr;block-progression:tb;writing-mode:lr-tb;baseline-shift:baseline;text-anchor:start;white-space:normal;clip-rule:nonzero;display:inline;overflow:visible;visibility:visible;opacity:1;isolation:auto;mix-blend-mode:normal;color-interpolation:sRGB;color-interpolation-filters:linearRGB;solid-color:;solid-opacity:1;fill:#ff373d;fill-opacity:1;fill-rule:evenodd;stroke:none;stroke-width:0.99999994px;stroke-linecap:round;stroke-linejoin:round;stroke-miterlimit:4;stroke-dasharray:none;stroke-dashoffset:0;stroke-opacity:1;color-rendering:auto;image-rendering:auto;shape-rendering:auto;text-rendering:auto;enable-background:accumulate" d="m 15.990234,1034.3613 a 0.50004997,0.50004997 0 0 0 -0.482422,0.4102 l -2.238281,11.1816 -1.335937,-2.3379 a 0.50004997,0.50004997 0 0 0 -0.681641,-0.1855 l -2.533203,1.4473 1.769531,-8.4063 a 0.50004997,0.50004997 0 1 0 -0.9785154,-0.2051 l -2,9.4942 a 0.50004997,0.50004997 0 0 0 0.7382813,0.5371 l 3.0644531,-1.75 1.751953,3.0625 a 0.50004997,0.50004997 0 0 0 0.925781,-0.1485 l 2.498047,-12.4941 a 0.50004997,0.50004997 0 0 0 -0.498047,-0.6055 z"></path><path style="color:;font-style:normal;font-variant:normal;font-weight:normal;font-stretch:normal;font-size:medium;line-height:normal;font-family:sans-serif;text-indent:0;text-align:start;text-decoration:none;text-decoration-line:none;text-decoration-style:solid;text-decoration-color:;letter-spacing:normal;word-spacing:normal;text-transform:none;direction:ltr;block-progression:tb;writing-mode:lr-tb;baseline-shift:baseline;text-anchor:start;white-space:normal;clip-rule:nonzero;display:inline;overflow:visible;visibility:visible;opacity:1;isolation:auto;mix-blend-mode:normal;color-interpolation:sRGB;color-interpolation-filters:linearRGB;solid-color:;solid-opacity:1;fill:#ff373d;fill-opacity:1;fill-rule:evenodd;stroke:none;stroke-width:0.99999994px;stroke-linecap:round;stroke-linejoin:round;stroke-miterlimit:4;stroke-dasharray:none;stroke-dashoffset:0;stroke-opacity:1;color-rendering:auto;image-rendering:auto;shape-rendering:auto;text-rendering:auto;enable-background:accumulate" d="m 15.994141,1034.3613 a 0.50004997,0.50004997 0 0 0 -0.482422,0.6055 l 2.498047,12.4941 a 0.50004997,0.50004997 0 0 0 0.925781,0.1504 l 1.751953,-3.0644 3.064453,1.75 a 0.50004997,0.50004997 0 0 0 0.738281,-0.5371 l -2,-9.4942 a 0.50004997,0.50004997 0 1 0 -0.978515,0.2051 l 1.771484,8.4063 -2.535156,-1.4473 a 0.50004997,0.50004997 0 0 0 -0.681641,0.1855 l -1.335937,2.3379 -2.238281,-11.1816 a 0.50004997,0.50004997 0 0 0 -0.498047,-0.4102 z"></path></g></g><g id="SvgjsG7050" featureKey="kZnDdN-0" transform="matrix(4.671326262478151,0,0,4.671326262478151,94.61146906879071,-25.320074416139494)" fill="#ff373d"><path d="M6.411 10.8594 c1.3282 0 1.8386 0.90124 1.8386 1.7992 c0 0.6842 -0.3434 1.309 -1.0482 1.309 c-0.4552 0 -0.829 -0.2952 -0.829 -0.809 c0 -0.5918 0.6504 -0.8318 0.6504 -1.2656 c0 -0.3558 -0.3166 -0.604 -0.8642 -0.604 c-1.3814 0 -2.7152 1.8434 -2.7152 4.8172 l0 3.1 c0 0.2572 0.1932 0.48202 0.4822 0.48202 l1.1028 0 c0.093008 0 0.15781 0.064804 0.15781 0.15801 c0 0.089004 -0.064804 0.15381 -0.15801 0.15381 l-4.1448 0 c-0.093204 0 -0.15801 -0.064804 -0.15801 -0.15801 c0 -0.089004 0.064804 -0.15381 0.15801 -0.15381 l0.51801 0 c0.289 0 0.48202 -0.2248 0.48202 -0.48202 l0 -7.4324 c0 -0.2572 -0.19301 -0.48202 -0.48202 -0.48202 l-0.51801 0 c-0.093204 0 -0.15801 -0.064804 -0.15801 -0.15381 c0 -0.093204 0.064804 -0.15801 0.15801 -0.15801 l2.56 0 l0 2.9584 c0.534 -2.2376 1.8784 -3.079 2.9676 -3.079 z M10.2158 7.894 c0 -0.5034 0.4144 -0.9178 0.9338 -0.9178 c0.4952 0 0.9098 0.4144 0.9098 0.9178 c0 0.4952 -0.4146 0.9096 -0.9098 0.9096 c-0.5194 0 -0.9338 -0.4144 -0.9338 -0.9096 z M12.9234 19.6882 c0.093204 0 0.15779 0.064844 0.15779 0.15385 c0 0.093204 -0.064804 0.15801 -0.15801 0.15801 l-3.56 0 c-0.093204 0 -0.15801 -0.064804 -0.15801 -0.15801 c0 -0.089004 0.064804 -0.15381 0.15801 -0.15381 l0.51801 0 c0.289 0 0.48202 -0.2248 0.48202 -0.48202 l0 -7.4324 c0 -0.2572 -0.19301 -0.48202 -0.48202 -0.48202 l-0.51801 0 c-0.093204 0 -0.15801 -0.064804 -0.15801 -0.15381 c0 -0.093204 0.064804 -0.15801 0.15801 -0.15801 l2.56 0 l0 8.2262 c0 0.2572 0.1932 0.48202 0.4822 0.48202 l0.51801 0 z M20.4842 10.8194 c2.0442 0 3.9088 1.4589 3.9088 4.6774 c0 3.042 -1.8626 4.6556 -3.909 4.6556 c-1.653 0 -2.8426 -1.22 -3.3806 -2.8642 l0 2.7118 l-2.56 0 c-0.093204 0 -0.15801 -0.064804 -0.15801 -0.15801 c0 -0.089004 0.064804 -0.15381 0.15801 -0.15381 l0.51801 0 c0.289 0 0.48202 -0.2248 0.48202 -0.48202 l0 -12.992 c0 -0.2572 -0.19301 -0.48202 -0.48202 -0.48202 l-0.51801 0 c-0.093204 0 -0.15801 -0.064804 -0.15801 -0.15381 c0 -0.093204 0.064804 -0.15801 0.15801 -0.15801 l2.56 0 l0 8.2518 c0.5546 -1.6772 1.7566 -2.8524 3.3808 -2.8524 z M20.0408 19.69248 c1.5566 0 2.6774 -1.2594 2.6774 -4.2008 c0 -2.953 -1.1208 -4.2122 -2.6774 -4.2122 c-1.5352 0 -2.9496 1.9082 -2.9496 4.1964 c0 2.3056 1.431 4.2166 2.9496 4.2166 z M32.2442 10.8194 c2.0442 0 3.9088 1.4589 3.9088 4.6774 c0 3.042 -1.8626 4.6556 -3.909 4.6556 c-1.653 0 -2.8426 -1.22 -3.3806 -2.8642 l0 2.7118 l-2.56 0 c-0.093204 0 -0.15801 -0.064804 -0.15801 -0.15801 c0 -0.089004 0.064804 -0.15381 0.15801 -0.15381 l0.51801 0 c0.289 0 0.48202 -0.2248 0.48202 -0.48202 l0 -12.992 c0 -0.2572 -0.19301 -0.48202 -0.48202 -0.48202 l-0.51801 0 c-0.093204 0 -0.15801 -0.064804 -0.15801 -0.15381 c0 -0.093204 0.064804 -0.15801 0.15801 -0.15801 l2.56 0 l0 8.2518 c0.5546 -1.6772 1.7566 -2.8524 3.3808 -2.8524 z M31.800800000000002 19.69248 c1.5566 0 2.6774 -1.2594 2.6774 -4.2008 c0 -2.953 -1.1208 -4.2122 -2.6774 -4.2122 c-1.5352 0 -2.9496 1.9082 -2.9496 4.1964 c0 2.3056 1.431 4.2166 2.9496 4.2166 z M42.591 20.129 c-2.4634 0 -4.3828 -1.663 -4.3828 -4.665 c0 -2.8944 1.8656 -4.6364 4.3828 -4.6364 c2.4262 0 4.3786 1.5766 4.3786 4.6366 c0 3.002 -1.8904 4.6648 -4.3786 4.6648 z M42.58 19.81359 c1.5558 -0.015801 2.7228 -1.5166 2.7228 -4.3412 c0 -2.8752 -1.1842 -4.3256 -2.7118 -4.3256 c-1.5194 0 -2.716 1.4504 -2.716 4.3256 c0 2.7144 1.1282 4.3254 2.705 4.3412 z M58.843 19.6882 c0.093204 0 0.15754 0.064804 0.15754 0.15381 c0 0.093204 -0.064804 0.15801 -0.15801 0.15801 l-3.56 0 c-0.093008 0 -0.15781 -0.064804 -0.15781 -0.15801 c0 -0.089004 0.064804 -0.15381 0.15801 -0.15381 l0.51801 0 c0.289 0 0.48202 -0.2248 0.48202 -0.48202 l0 -5.1958 c0 -2.0118 -0.9992 -2.596 -1.8392 -2.596 c-1.7842 0 -3.0008 1.9048 -3.0008 4.1338 l0 3.658 c0 0.2572 0.1932 0.48202 0.4822 0.48202 l0.51801 0 c0.093204 0 0.15801 0.064804 0.15801 0.15381 c0 0.093204 -0.064804 0.15801 -0.15801 0.15801 l-3.56 0 c-0.093204 0 -0.15801 -0.064804 -0.15801 -0.15801 c0 -0.089004 0.064804 -0.15381 0.15801 -0.15381 l0.51801 0 c0.289 0 0.48202 -0.2248 0.48202 -0.48202 l0 -7.4324 c0 -0.2572 -0.19301 -0.48202 -0.48202 -0.48202 l-0.51801 0 c-0.093204 0 -0.15801 -0.064804 -0.15801 -0.15381 c0 -0.093204 0.064804 -0.15801 0.15801 -0.15801 l2.56 0 l0 2.75 c0.5158 -1.6524 1.7704 -2.8706 3.555 -2.8706 c1.72 0 2.8448 1.0082 2.8448 2.7862 l0 5.5606 c0 0.2572 0.1932 0.48202 0.4822 0.48202 l0.51801 0 z"></path></g>
			</g>
		</svg>
	